<?xml version="1.0" standalone="no"?>
<!DOCTYPE svg PUBLIC "-//W3C//DTD SVG 20010904//EN"
 "http://www.w3.org/TR/2001/REC-SVG-20010904/DTD/svg10.dtd">
<svg version="1.0" xmlns="http://www.w3.org/2000/svg"
 width="500.000000pt" height="500.000000pt" viewBox="0 0 500.000000 500.000000"
 preserveAspectRatio="xMidYMid meet">

<g transform="translate(0.000000,500.000000) scale(0.100000,-0.100000)"
fill="#000000" stroke="none">
<path d="M60 2500 l0 -2440 2440 0 2440 0 0 2440 0 2440 -2440 0 -2440 0 0
-2440z m4740 0 l0 -2290 -2295 0 -2295 0 0 2290 0 2290 2295 0 2295 0 0 -2290z"/>
<path d="M1739 4246 c-71 -27 -115 -55 -162 -102 -138 -140 -151 -352 -29
-511 38 -51 131 -107 259 -157 65 -25 137 -58 161 -72 111 -66 111 -244 -1
-297 -117 -56 -247 -10 -277 99 l-13 44 -133 0 -133 0 5 -32 c21 -114 47 -170
112 -240 87 -93 197 -138 338 -138 140 0 245 46 333 146 114 129 141 326 66
474 -53 104 -142 166 -353 246 -57 21 -119 52 -137 67 -121 99 -15 283 135
238 45 -13 75 -47 92 -102 l11 -39 130 0 130 0 -6 55 c-12 122 -99 241 -216
297 -59 29 -76 32 -171 35 -71 2 -117 -2 -141 -11z"/>
<path d="M2490 3550 l0 -690 125 0 125 0 0 290 0 290 250 0 250 0 0 -290 0
-290 125 0 125 0 0 690 0 690 -125 0 -125 0 -2 -277 -3 -278 -245 0 -245 0 -3
278 -2 277 -125 0 -125 0 0 -690z"/>
<path d="M1460 1680 l0 -690 130 0 130 0 2 301 3 301 210 -298 210 -299 153
-3 c83 -1 152 0 152 3 0 2 -115 160 -256 351 l-255 345 42 57 c24 31 139 182
256 335 117 153 213 280 213 283 0 2 -68 3 -152 2 l-152 -3 -211 -293 -210
-292 -3 295 -2 295 -130 0 -130 0 0 -690z"/>
<path d="M2500 2364 c0 -4 101 -201 225 -439 l225 -431 0 -252 0 -252 125 0
125 0 0 252 0 251 225 433 c124 237 225 435 225 438 0 4 -61 5 -136 4 l-136
-3 -148 -308 c-82 -170 -150 -310 -152 -313 -3 -2 -73 137 -156 308 l-151 313
-135 3 c-75 1 -136 0 -136 -4z"/>
</g>
</svg>
