<?xml version="1.0" standalone="no"?>
<!DOCTYPE svg PUBLIC "-//W3C//DTD SVG 20010904//EN"
 "http://www.w3.org/TR/2001/REC-SVG-20010904/DTD/svg10.dtd">
<svg version="1.0" xmlns="http://www.w3.org/2000/svg" viewBox="0 0 500.000000 500.000000"
 preserveAspectRatio="xMidYMid meet">

<g transform="translate(0.000000,500.000000) scale(0.100000,-0.100000)" stroke="none">
<path d="M1520 2500 l0 -980 980 0 980 0 0 980 0 980 -980 0 -980 0 0 -980z
m1900 0 l0 -920 -920 0 -920 0 0 920 0 920 920 0 920 0 0 -920z"/>
<path d="M2174 3190 c-32 -13 -82 -77 -89 -114 -8 -39 7 -93 35 -129 11 -14
50 -37 87 -52 108 -44 140 -96 90 -143 -42 -39 -127 -17 -127 33 0 12 -13 15
-55 15 -62 0 -64 -4 -36 -65 22 -48 44 -69 94 -90 122 -51 247 34 247 168 0
75 -46 125 -150 164 -60 22 -80 41 -80 74 0 58 88 74 105 20 5 -18 15 -21 61
-21 54 0 54 0 48 28 -18 76 -79 122 -160 121 -27 0 -58 -4 -70 -9z"/>
<path d="M2500 2915 l0 -275 50 0 50 0 0 115 0 115 100 0 100 0 0 -115 0 -115
50 0 50 0 0 275 0 275 -50 0 -50 0 0 -110 0 -110 -100 0 -100 0 0 110 0 110
-50 0 -50 0 0 -275z"/>
<path d="M2080 2165 l0 -275 55 0 54 0 3 117 3 117 80 -117 80 -116 64 -1 c49
0 61 3 54 13 -45 57 -186 252 -190 263 -3 7 38 69 91 138 53 69 96 127 96 130
0 3 -26 6 -58 6 l-57 0 -80 -112 -80 -111 -3 111 -3 112 -54 0 -55 0 0 -275z"/>
<path d="M2576 2293 c42 -82 83 -158 90 -170 10 -15 14 -56 14 -128 l0 -105
50 0 50 0 0 100 0 100 90 172 c50 95 90 174 90 175 0 2 -24 3 -53 3 l-53 0
-59 -120 c-33 -66 -62 -120 -65 -120 -3 1 -31 55 -62 120 l-57 120 -55 0 -56
0 76 -147z"/>
</g>
</svg>
