<?xml version="1.0" ?><svg viewBox="0 0 427 302.1" xmlns="http://www.w3.org/2000/svg"><title/><g data-name="Layer 2" id="Layer_2"><g data-name="burger, hamburger, meat, cheese, food, meal, fast, restaurant, junk, fastfood" id="burger_hamburger_meat_cheese_food_meal_fast_restaurant_junk_fastfood"><path d="M19.63,174a5.39,5.39,0,0,0-6.39,4.14A39.53,39.53,0,0,0,51.9,226H65.84l42.06,36.25a28.93,28.93,0,0,0,36.36,1,5.39,5.39,0,0,0-6.56-8.56,18.11,18.11,0,0,1-22.76-.64L82.36,226h92.76l-4.34,3.34a5.39,5.39,0,0,0,6.57,8.55L192.83,226h45.69a5.39,5.39,0,0,0,0-10.78H51.9a28.79,28.79,0,0,1-28.76-28.75,29.18,29.18,0,0,1,.64-6.05A5.38,5.38,0,0,0,19.63,174Z"/><path d="M400.92,266.5V239.9a5.39,5.39,0,0,0-10.78,0v26.6a24.85,24.85,0,0,1-24.82,24.82H61.68A24.85,24.85,0,0,1,36.86,266.5V239.9a5.39,5.39,0,1,0-10.78,0v26.6a35.64,35.64,0,0,0,35.6,35.6H365.32A35.64,35.64,0,0,0,400.92,266.5Z"/><path d="M156.24,240.47l-2.11,1.62a5.39,5.39,0,1,0,6.56,8.55l2.12-1.62a5.39,5.39,0,1,0-6.57-8.55Z"/><path d="M44.14,75.94a5.29,5.29,0,0,0,2.57.66,5.39,5.39,0,0,0,4.74-2.82Q52.2,72.4,53,71.05a5.39,5.39,0,0,0-9.33-5.41c-.57,1-1.13,2-1.67,3A5.38,5.38,0,0,0,44.14,75.94Z"/><path d="M218.37,42.6a5.39,5.39,0,0,0,0-10.78h-5.92a5.39,5.39,0,1,0,0,10.78Z"/><path d="M183.83,94.27a5.39,5.39,0,0,0,0-10.78h-5.92a5.39,5.39,0,1,0,0,10.78Z"/><path d="M252.91,94.27a5.39,5.39,0,1,0,0-10.78H247a5.39,5.39,0,0,0,0,10.78Z"/><path d="M287.45,42.6a5.39,5.39,0,0,0,0-10.78h-5.92a5.39,5.39,0,1,0,0,10.78Z"/><path d="M322,94.27a5.39,5.39,0,0,0,0-10.78h-5.92a5.39,5.39,0,1,0,0,10.78Z"/><path d="M149.17,42.6a5.39,5.39,0,1,0,0-10.78h-5.91a5.39,5.39,0,1,0,0,10.78Z"/><path d="M114.51,94.27a5.39,5.39,0,1,0,0-10.78H108.6a5.39,5.39,0,0,0,0,10.78Z"/><path d="M15.2,163.12a40.65,40.65,0,0,1,13.55,5.12c2.83,1.66,5.43,3.53,8.17,5.51,8.79,6.33,18.76,13.5,37.84,13.5s29-7.17,37.83-13.5c8.55-6.16,15.93-11.47,31.53-11.47s23,5.31,31.56,11.46,18.25,13.13,36.27,13.48c0,0,.61,0,.83,0h.83c18.08-.35,28.11-7.3,37-13.42s16.65-11.52,32.31-11.52,23,5.31,31.53,11.47c8.79,6.33,18.75,13.5,37.83,13.5h.2c0,13,0,26.07,0,36.17,0,9.32,0,14.49.18,17.51a5.35,5.35,0,0,0-.17,1.34v21.46a8.5,8.5,0,0,1-2.58,6.14,8.4,8.4,0,0,1-6.18,2.46,8.88,8.88,0,0,1-8.44-9.06V254.5a17.65,17.65,0,0,0-17.64-17.63h-1.47a17.65,17.65,0,0,0-17.63,17.63,14.85,14.85,0,0,1-29.7,0V185.9a5.39,5.39,0,1,0-10.78,0v68.6a25.63,25.63,0,0,0,51.26,0,6.85,6.85,0,0,1,6.85-6.85h1.47a6.86,6.86,0,0,1,6.86,6.85v8.76c0,10.75,8.53,19.65,19,19.84h.36a19.37,19.37,0,0,0,19.38-19.38V243.65a5.47,5.47,0,0,0,.12-2.2c-.08-1.79-.19-11.72-.1-55.11,12.26-2.12,19.93-7.61,26.86-12.59,2.54-1.84,5-3.57,7.56-5.14a28.73,28.73,0,0,1-16.74,46A5.39,5.39,0,0,0,382,225.28a5,5,0,0,0,1.08-.11,39.53,39.53,0,0,0,24.66-61.07,41.14,41.14,0,0,1,4.08-1,18.78,18.78,0,0,0-3.58-37.21h-4.06C401.32,56,343.57,0,273,0H157.38A131.24,131.24,0,0,0,57.73,45.81a5.39,5.39,0,1,0,8.18,7,120.46,120.46,0,0,1,91.47-42H273A120.66,120.66,0,0,1,393.37,125.91H37a120.25,120.25,0,0,1,5.29-30.45A5.39,5.39,0,1,0,32,92.26a130.78,130.78,0,0,0-5.79,33.65H18.78a18.78,18.78,0,0,0-3.58,37.21Zm346.67,75.41c-.13-.13-.26-.26-.4-.38C361.61,238.27,361.74,238.4,361.87,238.53Zm-.66-.58a5.11,5.11,0,0,0-.48-.33A5.11,5.11,0,0,1,361.21,238Zm-.75-.47a5.52,5.52,0,0,0-.55-.26A5.52,5.52,0,0,1,360.46,237.48Zm-.9-.36A3.63,3.63,0,0,0,359,237,3.32,3.32,0,0,1,359.56,237.12Zm3.7,4a5.13,5.13,0,0,0-.26-.87A4.79,4.79,0,0,1,363.26,241.13Zm-1.15-2.35a5.48,5.48,0,0,1,.35.49A5.48,5.48,0,0,0,362.11,238.78Zm.5.71a4.55,4.55,0,0,1,.37.73A5,5,0,0,0,362.61,239.49ZM18.78,136.69H408.22a8,8,0,0,1,8,8,7.91,7.91,0,0,1-6.39,7.83,51.19,51.19,0,0,0-17,6.42c-3.27,1.92-6.2,4-9,6.06-8.55,6.15-15.93,11.47-31.54,11.47s-23-5.32-31.53-11.47c-8.79-6.33-18.75-13.5-37.83-13.5s-29.34,7.13-38.44,13.43c-8.7,6-16.22,11.22-31.15,11.51h-1C197.5,176.15,190.3,171,182,165c-8.8-6.33-18.77-13.49-37.85-13.49s-29,7.17-37.83,13.5c-8.55,6.15-15.93,11.47-31.53,11.47s-23-5.32-31.54-11.47c-2.82-2-5.75-4.14-9-6.06a51.19,51.19,0,0,0-17-6.42,7.91,7.91,0,0,1-6.39-7.83A8,8,0,0,1,18.78,136.69Z"/></g></g></svg>