<?xml version="1.0" ?><svg data-name="Layer 1" id="Layer_1" viewBox="0 0 512 512" xmlns="http://www.w3.org/2000/svg"><path d="M424.44,147.8c0-.16,0-.33,0-.49a.5.5,0,0,1,0-.12l-.06-.41,0-.11a3.11,3.11,0,0,0-.11-.41.19.19,0,0,0,0-.07c-.05-.15-.1-.29-.16-.43v0a5.2,5.2,0,0,0-1.14-1.69L323,44a5.56,5.56,0,0,0-1.66-1.13l-.07,0-.35-.13-.15-.05-.29-.07-.24-.06-.22,0-.31-.05h0l-.49,0H128.24A40.71,40.71,0,0,0,87.56,83.06V428.94a40.71,40.71,0,0,0,40.68,40.67H383.76a40.71,40.71,0,0,0,40.68-40.67V147.8Zm-99.9-87,81.54,81.69H347A22.51,22.51,0,0,1,324.54,120Zm89.14,368.16a30,30,0,0,1-29.92,29.91H128.24a30,30,0,0,1-29.92-29.91V83.06a30,30,0,0,1,29.92-29.91H313.78V120A33.28,33.28,0,0,0,347,153.23h66.66Z"/><path d="M150.7,235.43h0a5.38,5.38,0,0,0,5.36-5.4l-.1-22.75a42.23,42.23,0,0,1,42-42.34h.17a42.23,42.23,0,0,1,42.17,42l.08,22.75a5.4,5.4,0,0,0,5.38,5.36h0a5.4,5.4,0,0,0,5.37-5.41l-.09-22.74A53,53,0,0,0,218,158.05a34.16,34.16,0,0,0,4.57-3.87,34.85,34.85,0,0,0-24.75-59.4h-.14a34.84,34.84,0,0,0-19.78,63.43,53,53,0,0,0-32.7,49.11l.09,22.75A5.39,5.39,0,0,0,150.7,235.43Zm47.05-129.88h.09a24.09,24.09,0,0,1,.1,48.17h-.1a24.09,24.09,0,0,1-.09-48.17Z"/><path d="M276.36,187.54a5.38,5.38,0,0,0,5.38,5.38H361.4a5.39,5.39,0,0,0,0-10.77H281.74A5.38,5.38,0,0,0,276.36,187.54Z"/><path d="M361.4,224.67H281.74a5.38,5.38,0,0,0,0,10.76H361.4a5.38,5.38,0,0,0,0-10.76Z"/><path d="M361.4,267.18H150.6a5.39,5.39,0,0,0,0,10.77H361.4a5.39,5.39,0,0,0,0-10.77Z"/><path d="M361.4,309.71H150.6a5.38,5.38,0,1,0,0,10.76H361.4a5.38,5.38,0,0,0,0-10.76Z"/><path d="M361.4,352.22H150.6a5.39,5.39,0,0,0,0,10.77H361.4a5.39,5.39,0,0,0,0-10.77Z"/><path d="M361.4,394.74H150.6a5.38,5.38,0,0,0,0,10.76H361.4a5.38,5.38,0,0,0,0-10.76Z"/></svg>